HIERARCHY
ROOT mixamorig:Hips
{
	OFFSET -0.000008 104.274872 1.554316
	CHANNELS 6 Xposition Yposition Zposition Xrotation Yrotation Zrotation
	JOINT mixamorig:Spine
	{
		OFFSET -0.000005 10.181595 0.131519
		CHANNELS 6 Xposition Yposition Zposition Xrotation Yrotation Zrotation
		JOINT mixamorig:Spine1
		{
			OFFSET -0.000000 9.893959 -1.470707
			CHANNELS 6 Xposition Yposition Zposition Xrotation Yrotation Zrotation
			JOINT mixamorig:Spine2
			{
				OFFSET -0.000000 9.220757 -1.370641
				CHANNELS 6 Xposition Yposition Zposition Xrotation Yrotation Zrotation
				JOINT mixamorig:Neck
				{
					OFFSET 0.000001 16.740417 -2.049036
					CHANNELS 6 Xposition Yposition Zposition Xrotation Yrotation Zrotation
					JOINT mixamorig:Head
					{
						OFFSET 0.000000 9.617874 1.685006
						CHANNELS 6 Xposition Yposition Zposition Xrotation Yrotation Zrotation
						JOINT mixamorig:HeadTop_End
						{
							OFFSET 0.000002 22.037354 7.501101
							CHANNELS 6 Xposition Yposition Zposition Xrotation Yrotation Zrotation
							End Site
							{
								OFFSET 0.000168 2310.654297 -282.823242
							}
						}
					}
				}
				JOINT mixamorig:RightShoulder
				{
					OFFSET -4.569970 11.014908 -2.160885
					CHANNELS 6 Xposition Yposition Zposition Xrotation Yrotation Zrotation
					JOINT mixamorig:RightArm
					{
						OFFSET -10.592851 -0.524811 -2.232101
						CHANNELS 6 Xposition Yposition Zposition Xrotation Yrotation Zrotation
						JOINT mixamorig:RightForeArm
						{
							OFFSET -27.841511 0.000031 -0.000004
							CHANNELS 6 Xposition Yposition Zposition Xrotation Yrotation Zrotation
							JOINT mixamorig:RightHand
							{
								OFFSET -28.328831 -0.000015 0.000015
								CHANNELS 6 Xposition Yposition Zposition Xrotation Yrotation Zrotation
								JOINT mixamorig:RightHandThumb1
								{
									OFFSET -2.464806 -1.573990 2.681852
									CHANNELS 6 Xposition Yposition Zposition Xrotation Yrotation Zrotation
									JOINT mixamorig:RightHandThumb2
									{
										OFFSET -3.215179 -1.872803 1.924282
										CHANNELS 6 Xposition Yposition Zposition Xrotation Yrotation Zrotation
										JOINT mixamorig:RightHandThumb3
										{
											OFFSET -2.654831 -1.527969 1.512609
											CHANNELS 6 Xposition Yposition Zposition Xrotation Yrotation Zrotation
											JOINT mixamorig:RightHandThumb4
											{
												OFFSET -2.018814 -1.152008 1.108052
												CHANNELS 6 Xposition Yposition Zposition Xrotation Yrotation Zrotation
												End Site
												{
													OFFSET -188.809540 -114.533607 132.431396
												}
											}
										}
									}
								}
								JOINT mixamorig:RightHandIndex1
								{
									OFFSET -9.108284 -0.517868 2.259835
									CHANNELS 6 Xposition Yposition Zposition Xrotation Yrotation Zrotation
									JOINT mixamorig:RightHandIndex2
									{
										OFFSET -3.699989 0.000000 0.001215
										CHANNELS 6 Xposition Yposition Zposition Xrotation Yrotation Zrotation
										JOINT mixamorig:RightHandIndex3
										{
											OFFSET -2.850006 0.000031 -0.000522
											CHANNELS 6 Xposition Yposition Zposition Xrotation Yrotation Zrotation
											JOINT mixamorig:RightHandIndex4
											{
												OFFSET -2.772186 -0.000015 -0.000020
												CHANNELS 6 Xposition Yposition Zposition Xrotation Yrotation Zrotation
												End Site
												{
													OFFSET -277.218445 0.000000 -0.050231
												}
											}
										}
									}
								}
								JOINT mixamorig:RightHandMiddle1
								{
									OFFSET -9.532516 -0.000031 -0.000023
									CHANNELS 6 Xposition Yposition Zposition Xrotation Yrotation Zrotation
									JOINT mixamorig:RightHandMiddle2
									{
										OFFSET -3.700005 -0.000015 0.003713
										CHANNELS 6 Xposition Yposition Zposition Xrotation Yrotation Zrotation
										JOINT mixamorig:RightHandMiddle3
										{
											OFFSET -2.949974 0.000015 -0.002054
											CHANNELS 6 Xposition Yposition Zposition Xrotation Yrotation Zrotation
											JOINT mixamorig:RightHandMiddle4
											{
												OFFSET -2.946640 0.000000 -0.000156
												CHANNELS 6 Xposition Yposition Zposition Xrotation Yrotation Zrotation
												End Site
												{
													OFFSET -294.664337 0.000000 -0.113670
												}
											}
										}
									}
								}
								JOINT mixamorig:RightHandRing1
								{
									OFFSET -9.103600 -0.043076 -1.865134
									CHANNELS 6 Xposition Yposition Zposition Xrotation Yrotation Zrotation
									JOINT mixamorig:RightHandRing2
									{
										OFFSET -3.379288 0.000000 -0.001055
										CHANNELS 6 Xposition Yposition Zposition Xrotation Yrotation Zrotation
										JOINT mixamorig:RightHandRing3
										{
											OFFSET -2.889687 -0.000015 0.000379
											CHANNELS 6 Xposition Yposition Zposition Xrotation Yrotation Zrotation
											JOINT mixamorig:RightHandRing4
											{
												OFFSET -2.638809 -0.000015 0.000941
												CHANNELS 6 Xposition Yposition Zposition Xrotation Yrotation Zrotation
												End Site
												{
													OFFSET -263.880371 0.000000 0.516020
												}
											}
										}
									}
								}
								JOINT mixamorig:RightHandPinky1
								{
									OFFSET -8.076683 -0.486710 -3.806280
									CHANNELS 6 Xposition Yposition Zposition Xrotation Yrotation Zrotation
									JOINT mixamorig:RightHandPinky2
									{
										OFFSET -3.600014 -0.000015 -0.003747
										CHANNELS 6 Xposition Yposition Zposition Xrotation Yrotation Zrotation
										JOINT mixamorig:RightHandPinky3
										{
											OFFSET -2.099983 0.000000 -0.005739
											CHANNELS 6 Xposition Yposition Zposition Xrotation Yrotation Zrotation
											JOINT mixamorig:RightHandPinky4
											{
												OFFSET -2.115768 -0.000031 -0.003680
												CHANNELS 6 Xposition Yposition Zposition Xrotation Yrotation Zrotation
												End Site
												{
													OFFSET -211.577087 0.000000 -0.350686
												}
											}
										}
									}
								}
							}
						}
					}
				}
				JOINT mixamorig:LeftShoulder
				{
					OFFSET 4.570447 11.014725 -2.160855
					CHANNELS 6 Xposition Yposition Zposition Xrotation Yrotation Zrotation
					JOINT mixamorig:LeftArm
					{
						OFFSET 10.592371 -0.524597 -2.232119
						CHANNELS 6 Xposition Yposition Zposition Xrotation Yrotation Zrotation
						JOINT mixamorig:LeftForeArm
						{
							OFFSET 27.841532 -0.000031 0.000026
							CHANNELS 6 Xposition Yposition Zposition Xrotation Yrotation Zrotation
							JOINT mixamorig:LeftHand
							{
								OFFSET 28.328846 -0.000061 0.000022
								CHANNELS 6 Xposition Yposition Zposition Xrotation Yrotation Zrotation
								JOINT mixamorig:LeftHandThumb1
								{
									OFFSET 2.466141 -1.576172 2.681732
									CHANNELS 6 Xposition Yposition Zposition Xrotation Yrotation Zrotation
									JOINT mixamorig:LeftHandThumb2
									{
										OFFSET 3.217812 -1.872070 1.916482
										CHANNELS 6 Xposition Yposition Zposition Xrotation Yrotation Zrotation
										JOINT mixamorig:LeftHandThumb3
										{
											OFFSET 2.656029 -1.528778 1.514513
											CHANNELS 6 Xposition Yposition Zposition Xrotation Yrotation Zrotation
											JOINT mixamorig:LeftHandThumb4
											{
												OFFSET 2.020889 -1.154053 1.115139
												CHANNELS 6 Xposition Yposition Zposition Xrotation Yrotation Zrotation
												End Site
												{
													OFFSET 190.885437 -115.081749 130.048782
												}
											}
										}
									}
								}
								JOINT mixamorig:LeftHandIndex1
								{
									OFFSET 9.109314 -0.518021 2.259871
									CHANNELS 6 Xposition Yposition Zposition Xrotation Yrotation Zrotation
									JOINT mixamorig:LeftHandIndex2
									{
										OFFSET 3.699989 0.000000 -0.000322
										CHANNELS 6 Xposition Yposition Zposition Xrotation Yrotation Zrotation
										JOINT mixamorig:LeftHandIndex3
										{
											OFFSET 2.850006 0.000000 0.000352
											CHANNELS 6 Xposition Yposition Zposition Xrotation Yrotation Zrotation
											JOINT mixamorig:LeftHandIndex4
											{
												OFFSET 2.774864 -0.000031 -0.000027
												CHANNELS 6 Xposition Yposition Zposition Xrotation Yrotation Zrotation
												End Site
												{
													OFFSET 277.486267 0.000000 -0.009857
												}
											}
										}
									}
								}
								JOINT mixamorig:LeftHandMiddle1
								{
									OFFSET 9.533394 0.000061 0.000044
									CHANNELS 6 Xposition Yposition Zposition Xrotation Yrotation Zrotation
									JOINT mixamorig:LeftHandMiddle2
									{
										OFFSET 3.699989 -0.000015 -0.000231
										CHANNELS 6 Xposition Yposition Zposition Xrotation Yrotation Zrotation
										JOINT mixamorig:LeftHandMiddle3
										{
											OFFSET 2.949997 -0.000015 -0.000059
											CHANNELS 6 Xposition Yposition Zposition Xrotation Yrotation Zrotation
											JOINT mixamorig:LeftHandMiddle4
											{
												OFFSET 2.952896 0.000031 0.000063
												CHANNELS 6 Xposition Yposition Zposition Xrotation Yrotation Zrotation
												End Site
												{
													OFFSET 295.289337 0.000000 0.022810
												}
											}
										}
									}
								}
								JOINT mixamorig:LeftHandRing1
								{
									OFFSET 9.104523 -0.042999 -1.865074
									CHANNELS 6 Xposition Yposition Zposition Xrotation Yrotation Zrotation
									JOINT mixamorig:LeftHandRing2
									{
										OFFSET 3.150009 -0.000031 0.000043
										CHANNELS 6 Xposition Yposition Zposition Xrotation Yrotation Zrotation
										JOINT mixamorig:LeftHandRing3
										{
											OFFSET 2.949982 -0.000015 0.000040
											CHANNELS 6 Xposition Yposition Zposition Xrotation Yrotation Zrotation
											JOINT mixamorig:LeftHandRing4
											{
												OFFSET 2.644348 0.000000 0.000057
												CHANNELS 6 Xposition Yposition Zposition Xrotation Yrotation Zrotation
												End Site
												{
													OFFSET 264.434631 0.000000 0.012105
												}
											}
										}
									}
								}
								JOINT mixamorig:LeftHandPinky1
								{
									OFFSET 8.077789 -0.486847 -3.806259
									CHANNELS 6 Xposition Yposition Zposition Xrotation Yrotation Zrotation
									JOINT mixamorig:LeftHandPinky2
									{
										OFFSET 3.599953 0.000031 0.014727
										CHANNELS 6 Xposition Yposition Zposition Xrotation Yrotation Zrotation
										JOINT mixamorig:LeftHandPinky3
										{
											OFFSET 2.100021 0.000015 0.007705
											CHANNELS 6 Xposition Yposition Zposition Xrotation Yrotation Zrotation
											JOINT mixamorig:LeftHandPinky4
											{
												OFFSET 2.125504 0.000031 0.007517
												CHANNELS 6 Xposition Yposition Zposition Xrotation Yrotation Zrotation
												End Site
												{
													OFFSET 212.550781 0.000000 0.625752
												}
											}
										}
									}
								}
							}
						}
					}
				}
			}
		}
	}
	JOINT mixamorig:RightUpLeg
	{
		OFFSET -8.207787 -6.751648 -1.599560
		CHANNELS 6 Xposition Yposition Zposition Xrotation Yrotation Zrotation
		JOINT mixamorig:RightLeg
		{
			OFFSET -0.000002 -44.370117 0.345942
			CHANNELS 6 Xposition Yposition Zposition Xrotation Yrotation Zrotation
			JOINT mixamorig:RightFoot
			{
				OFFSET 0.000003 -44.423679 -3.043532
				CHANNELS 6 Xposition Yposition Zposition Xrotation Yrotation Zrotation
				JOINT mixamorig:RightToeBase
				{
					OFFSET -0.000002 -8.728671 10.710558
					CHANNELS 6 Xposition Yposition Zposition Xrotation Yrotation Zrotation
					JOINT mixamorig:RightToe_End
					{
						OFFSET -0.000001 -0.000679 9.278119
						CHANNELS 6 Xposition Yposition Zposition Xrotation Yrotation Zrotation
						End Site
						{
							OFFSET 0.000000 -0.067690 927.812134
						}
					}
				}
			}
		}
	}
	JOINT mixamorig:LeftUpLeg
	{
		OFFSET 8.207793 -6.751686 -1.599556
		CHANNELS 6 Xposition Yposition Zposition Xrotation Yrotation Zrotation
		JOINT mixamorig:LeftLeg
		{
			OFFSET -0.000004 -44.370014 0.346954
			CHANNELS 6 Xposition Yposition Zposition Xrotation Yrotation Zrotation
			JOINT mixamorig:LeftFoot
			{
				OFFSET -0.000001 -44.423672 -3.044401
				CHANNELS 6 Xposition Yposition Zposition Xrotation Yrotation Zrotation
				JOINT mixamorig:LeftToeBase
				{
					OFFSET -0.000002 -8.728669 10.710558
					CHANNELS 6 Xposition Yposition Zposition Xrotation Yrotation Zrotation
					JOINT mixamorig:LeftToe_End
					{
						OFFSET -0.000003 -0.000679 9.278133
						CHANNELS 6 Xposition Yposition Zposition Xrotation Yrotation Zrotation
						End Site
						{
							OFFSET 0.000000 -0.068021 927.813477
						}
					}
				}
			}
		}
	}
}
MOTION
Frames: 3
Frame Time: 0.033333
0.000006 104.270477 1.554256 0.000010 0.000003 -0.000113 -0.000005 10.181587 0.131522 0.000001 -0.000003 0.000084 -0.000000 9.893967 -1.470711 0.000001 0.000000 -0.000000 -0.000000 9.220802 -1.370642 0.000000 -0.000000 -0.000000 0.000001 16.740433 -2.049030 0.000000 -0.000000 -0.000000 0.000000 9.617859 1.685014 0.000000 0.000000 0.000000 0.000002 22.037384 7.501101 0.000000 -0.000000 0.000000 -4.569968 11.014880 -2.160881 0.000008 0.000001 -0.000038 -10.592866 -0.524672 -2.232029 71.523644 6.302149 -4.541087 -27.841532 0.000013 0.000525 -57.426291 118.968331 85.806396 -28.328819 0.000021 0.000028 -0.000321 -0.000044 0.000006 -2.464447 -1.573787 2.682340 -45.806158 -165.192278 -4.255925 -3.215272 -1.872565 1.924651 155.518681 31.889542 4.796541 -2.654954 -1.527900 1.513095 147.563068 26.674501 -38.489800 -2.018823 -1.151981 1.108066 -0.000005 -0.000004 0.000004 -9.108409 -0.517555 2.260137 100.930983 17.285558 -20.926545 -3.700083 0.000318 0.001524 98.426045 13.429282 -15.513554 -2.850081 0.000375 -0.000251 98.622980 10.188480 -11.837962 -2.772174 -0.000010 -0.000016 0.000002 0.000002 -0.000002 -9.532628 0.000266 0.000258 96.561021 17.208177 -19.424448 -3.700056 0.000338 0.003996 96.147726 11.338902 -12.511622 -2.950053 0.000343 -0.001788 97.666275 10.150530 -11.591099 -2.946616 0.000030 -0.000156 -0.000001 0.000002 -0.000000 -9.103721 -0.042789 -1.864836 95.484569 19.466980 -21.332605 -3.379318 0.000325 -0.000801 95.691251 8.317645 -9.203055 -2.889762 0.000358 0.000638 99.276813 4.746034 -5.634872 -2.638815 -0.000001 0.000946 0.000002 0.000001 -0.000001 -8.076785 -0.486410 -3.806020 86.293949 20.009939 -18.633512 -3.600048 0.000262 -0.003505 91.028458 7.984728 -7.769706 -2.099984 0.000327 -0.005496 92.694164 3.564567 -3.513173 -2.115781 -0.000040 -0.003675 -0.000004 0.000001 -0.000004 4.570446 11.014691 -2.160851 -0.000018 0.000010 -0.000021 10.592358 -0.524535 -2.232265 71.228887 12.175435 -8.737336 27.841827 0.000112 -0.000217 106.186574 -62.536502 77.917118 28.328823 -0.000029 0.000020 0.000019 -0.000088 0.000001 2.466000 -1.576161 2.681899 -35.093949 156.358671 -17.523195 3.217808 -1.871724 1.916361 157.014629 -30.224133 5.479854 2.656107 -1.528612 1.514448 143.067874 -27.421611 39.526530 2.020895 -1.154070 1.115150 0.000004 -0.000001 0.000004 9.109364 -0.517822 2.259738 92.268985 -16.041410 16.667791 3.700048 0.000176 -0.000463 90.856713 -14.424719 14.657106 2.850070 0.000216 0.000216 89.118129 -12.707586 12.513748 2.774877 -0.000035 -0.000027 -0.000002 0.000001 0.000001 9.533451 0.000245 -0.000083 91.927946 -14.929103 15.424997 3.700063 0.000181 -0.000386 91.200709 -13.720802 14.005753 2.950063 0.000181 -0.000181 91.602044 -16.633094 17.101062 2.952885 -0.000027 0.000074 -0.000000 0.000003 0.000001 9.104575 -0.042821 -1.865221 90.637300 -14.275138 14.435074 3.150054 0.000212 -0.000096 94.134774 -12.943314 13.905589 2.950013 0.000188 -0.000068 97.456445 -13.773330 15.673059 2.644319 0.000030 0.000052 -0.000000 0.000002 0.000003 8.077829 -0.486722 -3.806406 77.580130 -17.114642 14.271557 3.599997 0.000188 0.014568 79.140200 -12.874414 11.075089 2.100032 0.000192 0.007555 83.553301 -11.289196 10.520108 2.125515 0.000003 0.007524 -0.000003 -0.000002 -0.000001 -8.207786 -6.751667 -1.599560 -0.077001 -0.000003 0.000080 -0.000002 -44.370110 0.345938 0.153719 -0.000000 -0.000000 0.000000 -44.423679 -3.043532 -0.076700 0.000000 -0.000002 -0.000006 -8.728667 10.710559 -0.000009 -0.000000 -0.000000 -0.000001 -0.000679 9.278123 0.000000 -0.000000 -0.000000 8.207792 -6.751710 -1.599556 -0.074518 -0.000003 0.000081 -0.000002 -44.370014 0.346960 0.148822 0.000002 0.000000 -0.000001 -44.423664 -3.044403 -0.074314 0.000000 -0.000002 -0.000004 -8.728671 10.710558 0.000007 -0.000000 -0.000000 0.000000 -0.000680 9.278137 -0.000000 0.000000 -0.000001 
0.000006 104.270477 1.554256 0.000010 0.000003 -0.000113 -0.000005 10.181587 0.131522 0.000001 -0.000003 0.000084 -0.000000 9.893967 -1.470711 0.000001 0.000000 -0.000000 -0.000000 9.220802 -1.370642 0.000000 -0.000000 -0.000000 0.000001 16.740433 -2.049030 0.000000 -0.000000 -0.000000 0.000000 9.617859 1.685014 0.000000 0.000000 0.000000 0.000002 22.037384 7.501101 0.000000 -0.000000 0.000000 -4.569968 11.014880 -2.160881 0.000008 0.000001 -0.000038 -10.592870 -0.524675 -2.232018 71.839260 8.167507 -5.921332 -27.841536 0.000014 0.000549 -54.415062 118.077742 81.187576 -28.328819 0.000022 0.000025 -0.000320 -0.000046 0.000007 -2.464410 -1.573752 2.682319 -48.959687 -164.937239 -12.711235 -3.215265 -1.872571 1.924639 152.688483 33.025662 14.945166 -2.654947 -1.527878 1.513076 148.648098 26.887361 -34.438456 -2.018834 -1.152012 1.108049 -0.000005 -0.000001 0.000002 -9.108369 -0.517549 2.260141 102.458158 16.808660 -20.903903 -3.700072 0.000315 0.001522 98.156109 13.943590 -16.031099 -2.850083 0.000374 -0.000269 96.217496 11.261215 -12.543870 -2.772193 -0.000014 -0.000020 0.000003 0.000001 -0.000001 -9.532591 0.000259 0.000262 97.317437 18.526415 -21.169172 -3.700085 0.000329 0.003995 96.007967 12.749493 -14.042396 -2.950059 0.000344 -0.001775 97.863606 11.606884 -13.297609 -2.946631 0.000001 -0.000151 0.000001 -0.000002 0.000003 -9.103708 -0.042768 -1.864851 95.226525 21.080455 -22.994803 -3.379328 0.000318 -0.000792 96.160888 9.855300 -10.989227 -2.889748 0.000348 0.000674 101.846856 6.622541 -8.207028 -2.638814 -0.000016 0.000939 -0.000002 -0.000001 0.000002 -8.076764 -0.486412 -3.806021 85.072861 23.106658 -21.099633 -3.600052 0.000292 -0.003510 88.901203 10.368009 -9.815224 -2.100011 0.000310 -0.005465 92.171313 4.958313 -4.924052 -2.115773 -0.000042 -0.003680 -0.000002 0.000005 -0.000004 4.570446 11.014691 -2.160851 -0.000018 0.000010 -0.000021 10.592358 -0.524542 -2.232272 71.130095 15.586533 -11.178080 27.841845 0.000104 -0.000206 106.720080 -64.073492 80.152120 28.328848 -0.000029 0.000032 0.000020 -0.000088 -0.000000 2.466117 -1.576161 2.681891 -19.671501 157.985185 -49.463858 3.217837 -1.871785 1.916394 163.587812 -26.753361 21.694066 2.656099 -1.528674 1.514462 140.710011 -27.276436 53.125331 2.020891 -1.154068 1.115145 0.000002 -0.000000 0.000003 9.109386 -0.517843 2.259721 92.195300 -17.809530 18.480475 3.700044 0.000194 -0.000476 90.560836 -11.375258 11.503167 2.850043 0.000232 0.000197 89.306486 -8.160785 8.061705 2.774869 -0.000047 -0.000021 -0.000001 -0.000000 0.000001 9.533456 0.000215 -0.000076 91.081071 -17.072961 17.384145 3.700045 0.000205 -0.000387 92.522767 -9.388764 9.806804 2.950060 0.000187 -0.000207 93.689746 -9.439374 10.067586 2.952876 -0.000017 0.000066 0.000001 -0.000001 0.000002 9.104586 -0.042832 -1.865229 90.424827 -16.187470 16.308291 3.150044 0.000217 -0.000104 96.010692 -10.567310 11.732605 2.950019 0.000207 -0.000069 98.141916 -9.480316 10.926929 2.644312 0.000047 0.000057 0.000001 0.000001 -0.000001 8.077839 -0.486712 -3.806391 81.457615 -17.812104 15.883180 3.600013 0.000193 0.014574 83.786176 -15.226881 14.142386 2.100044 0.000204 0.007536 86.196858 -11.252537 10.981160 2.125508 -0.000028 0.007516 0.000001 0.000004 0.000001 -8.207786 -6.751667 -1.599560 -0.077001 -0.000003 0.000080 -0.000002 -44.370110 0.345938 0.153719 -0.000000 -0.000000 0.000000 -44.423679 -3.043532 -0.076700 0.000000 -0.000002 -0.000006 -8.728667 10.710559 -0.000009 -0.000000 -0.000000 -0.000001 -0.000679 9.278123 0.000000 -0.000000 -0.000000 8.207792 -6.751710 -1.599556 -0.074518 -0.000003 0.000081 -0.000002 -44.370014 0.346960 0.148822 0.000002 0.000000 -0.000001 -44.423664 -3.044403 -0.074314 0.000000 -0.000002 -0.000004 -8.728671 10.710558 0.000007 -0.000000 -0.000000 0.000000 -0.000680 9.278137 -0.000000 0.000000 -0.000001 
0.000006 104.270477 1.554256 0.000010 0.000003 -0.000113 -0.000005 10.181587 0.131522 0.000001 -0.000003 0.000084 -0.000000 9.893967 -1.470711 0.000001 0.000000 -0.000000 -0.000000 9.220802 -1.370642 0.000000 -0.000000 -0.000000 0.000001 16.740433 -2.049030 0.000000 -0.000000 -0.000000 0.000000 9.617859 1.685014 0.000000 0.000000 0.000000 0.000002 22.037384 7.501101 0.000000 -0.000000 0.000000 -4.569968 11.014880 -2.160881 0.000008 0.000001 -0.000038 -10.592875 -0.524689 -2.232010 72.039945 11.454519 -8.341394 -27.841518 0.000008 0.000547 -52.770762 115.697339 76.565007 -28.328844 0.000022 0.000020 -0.000319 -0.000047 0.000007 -2.464429 -1.573767 2.682320 -48.967942 -165.671361 -12.724466 -3.215267 -1.872554 1.924648 153.887277 32.639568 10.933096 -2.654953 -1.527900 1.513093 148.948053 26.793937 -34.800480 -2.018834 -1.152012 1.108066 0.000002 -0.000001 0.000002 -9.108401 -0.517559 2.260159 101.987961 17.125888 -21.120282 -3.700081 0.000318 0.001509 98.051423 14.339091 -16.454957 -2.850097 0.000359 -0.000260 96.124285 11.635904 -12.939565 -2.772152 0.000001 -0.000023 0.000002 -0.000001 0.000002 -9.532616 0.000255 0.000253 96.812051 18.786497 -21.277260 -3.700071 0.000328 0.003987 95.937452 13.039160 -14.345305 -2.950052 0.000335 -0.001813 97.758264 11.872992 -13.576983 -2.946648 -0.000000 -0.000149 0.000001 0.000000 -0.000000 -9.103717 -0.042767 -1.864844 94.884544 21.029184 -22.805590 -3.379339 0.000327 -0.000777 96.306186 9.737839 -10.886180 -2.889744 0.000364 0.000642 101.685732 6.579955 -8.131321 -2.638811 -0.000031 0.000936 0.000001 -0.000002 0.000004 -8.076792 -0.486408 -3.806021 84.690869 22.997382 -20.861816 -3.600048 0.000282 -0.003510 88.819316 9.989398 -9.431915 -2.100008 0.000323 -0.005495 91.532595 4.709000 -4.614275 -2.115767 -0.000056 -0.003686 0.000000 0.000001 -0.000004 4.570446 11.014691 -2.160851 -0.000018 0.000010 -0.000021 10.592357 -0.524544 -2.232260 71.512224 14.824043 -10.702837 27.841843 0.000101 -0.000222 107.124359 -64.935216 81.511778 28.328825 -0.000029 0.000012 0.000020 -0.000089 -0.000000 2.466146 -1.576145 2.681879 -14.469525 157.914411 -58.491780 3.217834 -1.871788 1.916391 163.312555 -27.193232 19.945636 2.656101 -1.528672 1.514495 140.111454 -27.461633 53.420938 2.020894 -1.154075 1.115143 0.000004 -0.000001 0.000004 9.109369 -0.517835 2.259737 92.448878 -18.492993 19.272753 3.700031 0.000182 -0.000480 91.426651 -11.853967 12.167755 2.850040 0.000209 0.000206 90.628790 -8.659255 8.753188 2.774890 -0.000031 -0.000023 -0.000001 -0.000004 -0.000001 9.533466 0.000217 -0.000086 91.447989 -18.359992 18.812383 3.700059 0.000199 -0.000387 92.999487 -10.128194 10.666983 2.950042 0.000213 -0.000205 94.718468 -9.863373 10.709385 2.952859 -0.000014 0.000063 -0.000001 -0.000003 -0.000000 9.104599 -0.042842 -1.865213 91.199944 -17.465093 17.830880 3.150047 0.000216 -0.000096 96.283148 -11.380156 12.693706 2.950023 0.000201 -0.000087 98.392058 -9.786462 11.328736 2.644312 0.000015 0.000051 0.000000 0.000001 -0.000001 8.077838 -0.486721 -3.806418 81.405671 -18.915808 16.829991 3.599984 0.000192 0.014572 83.694413 -16.208884 15.007297 2.100050 0.000199 0.007541 86.561221 -11.877744 11.643645 2.125496 -0.000016 0.007513 0.000000 0.000003 -0.000000 -8.207786 -6.751667 -1.599560 -0.077001 -0.000003 0.000080 -0.000002 -44.370110 0.345938 0.153719 -0.000000 -0.000000 0.000000 -44.423679 -3.043532 -0.076700 0.000000 -0.000002 -0.000006 -8.728667 10.710559 -0.000009 -0.000000 -0.000000 -0.000001 -0.000679 9.278123 0.000000 -0.000000 -0.000000 8.207792 -6.751710 -1.599556 -0.074518 -0.000003 0.000081 -0.000002 -44.370014 0.346960 0.148822 0.000002 0.000000 -0.000001 -44.423664 -3.044403 -0.074314 0.000000 -0.000002 -0.000004 -8.728671 10.710558 0.000007 -0.000000 -0.000000 0.000000 -0.000680 9.278137 -0.000000 0.000000 -0.000001 
